<?xml version="1.0" encoding="UTF-8"?>
<svg width="144px" height="36px" viewBox="0 0 144 36" version="1.1" xmlns="http://www.w3.org/2000/svg" xmlns:xlink="http://www.w3.org/1999/xlink">
    <!-- Generator: Sketch 46.2 (44496) - http://www.bohemiancoding.com/sketch -->
    <title>Group 30</title>
    <desc>Created with Sketch.</desc>
    <defs>
        <filter x="-5.0%" y="-17.9%" width="109.9%" height="153.6%" filterUnits="objectBoundingBox" id="filter-1">
            <feOffset dx="0" dy="2" in="SourceAlpha" result="shadowOffsetOuter1"></feOffset>
            <feGaussianBlur stdDeviation="2" in="shadowOffsetOuter1" result="shadowBlurOuter1"></feGaussianBlur>
            <feColorMatrix values="0 0 0 0 0   0 0 0 0 0   0 0 0 0 0  0 0 0 0.0505831069 0" type="matrix" in="shadowBlurOuter1" result="shadowMatrixOuter1"></feColorMatrix>
            <feMerge>
                <feMergeNode in="shadowMatrixOuter1"></feMergeNode>
                <feMergeNode in="SourceGraphic"></feMergeNode>
            </feMerge>
        </filter>
        <polygon id="path-2" points="0 27.3321994 139.463384 27.3321994 139.463384 0.0663781985 0 0.0663781985"></polygon>
    </defs>
    <g id="Page-1" stroke="none" stroke-width="1" fill="none" fill-rule="evenodd">
        <g id="DESKTOP-LANDING-V1" transform="translate(-380.000000, -921.000000)">
            <g id="Group-25" transform="translate(0.000000, 897.000000)">
                <g id="Group-24" transform="translate(384.000000, 26.000000)">
                    <g id="WHITE-LOGO-Copy" filter="url(#filter-1)">
                        <g id="Group-30" transform="translate(0.000000, 0.491366)">
                            <path d="M133.56398,24.1804064 L135.657961,24.1804064 L135.657961,26.8232627 C134.88987,27.1568271 134.128474,27.3224937 133.372655,27.3224937 C132.339609,27.3224937 131.515181,27.0218395 130.897138,26.4194155 C130.280211,25.8158759 129.97119,25.0728863 129.97119,24.1893312 C129.97119,23.2578052 130.291367,22.483021 130.930048,21.8633052 C131.571518,21.2441472 132.372519,20.935126 133.336398,20.935126 C133.687254,20.935126 134.019703,20.9730564 134.336533,21.049475 C134.65169,21.1242202 135.049959,21.2636702 135.533014,21.4667094 L135.533014,22.3775968 C134.788351,21.9458596 134.050382,21.729991 133.319664,21.729991 C132.638032,21.729991 132.064056,21.9620358 131.595504,22.4255676 C131.129183,22.890215 130.894907,23.4602866 130.894907,24.1357824 C130.894907,24.8436305 131.129183,25.4226269 131.595504,25.8722137 C132.064056,26.3212427 132.664249,26.5465939 133.399429,26.5465939 C133.755863,26.5465939 134.183696,26.4640395 134.67958,26.3006041 L134.764365,26.2743875 L134.764365,24.9747135 L133.56398,24.9747135 L133.56398,24.1804064 Z" id="Fill-3" fill="#FEFEFE"></path>
                            <path d="M108.559926,13.8218932 C108.746789,13.719258 109.066966,13.5257014 109.453522,13.3466476 C109.838961,13.1670361 110.290222,13.0242393 110.737577,12.9667859 C111.537462,12.8630351 112.121479,12.9589767 112.568835,13.2401079 C113.003919,13.5145454 113.436771,13.889387 113.733521,13.9613432 C114.012421,14.028837 114.151313,13.8274712 114.668952,13.4939068 C115.286436,13.1040047 115.861528,12.7988881 116.207922,12.6237389 C117.801556,11.8182757 118.885919,11.5449537 119.549701,11.5142747 C120.224639,11.4808067 120.42489,11.8444923 120.496846,12.0525517 C120.645778,12.4859623 120.382497,13.1781921 119.84422,13.1363571 C119.183227,13.0844817 118.218791,13.437569 117.907538,13.5396464 C117.281129,13.7454746 116.766837,13.9752882 116.125367,14.3707684 C115.506209,14.751188 114.877011,15.3469184 114.651102,15.518163 C114.196495,15.8634412 113.562834,16.2271268 113.018979,15.9984288 C112.847177,15.925357 112.595051,15.5343392 112.488511,15.3112192 C112.080202,14.447187 111.192184,14.282636 110.175315,14.8588434 C109.123304,15.4885996 108.104761,16.1618642 107.675813,16.3470538 C107.239614,16.5355902 105.665502,16.8156058 105.015665,15.8840798 C103.681407,13.9613432 105.832284,10.8259495 108.516418,11.0407025 C109.277257,11.1015027 109.523247,11.2476463 109.745809,11.5577831 C109.993472,11.9052925 109.913149,12.6493977 109.523247,12.6237389 C108.01384,12.5199881 106.484352,12.8228735 106.270715,14.1604778 C106.267926,14.1783274 106.241709,14.6530152 106.43415,14.7601128 C106.729784,14.9285684 107.090123,14.7601128 107.290931,14.6641712 C107.647365,14.4884642 108.18118,14.028837 108.559926,13.8218932" id="Fill-5" fill="#FEFEFE"></path>
                            <path d="M79.9514246,8.37352608 C81.0335565,8.50851367 82.4782585,8.47393007 83.7394443,8.45440707 C84.1828953,8.44771348 84.6748748,8.39751148 84.9833382,8.50851367 C85.3392146,8.63736547 85.8501594,9.31565026 85.7402728,9.85950524 C85.5818576,10.6504656 84.643638,10.3693344 83.8476575,10.2388092 C82.5334807,10.0240562 81.1958763,9.89241544 79.573794,9.96827624 C79.2709086,9.98277904 78.9261882,9.94150184 78.7069728,9.99560844 C78.4029718,10.0697958 78.1391324,10.5762782 77.8959316,10.942195 C77.3950272,11.7019186 77.0374774,12.3846658 76.6860634,13.2074208 C76.4925068,13.66147 76.2944878,14.2806279 76.620243,14.4396009 C77.278447,14.7698185 78.2389786,13.3535644 79.4365752,12.9971302 C80.0289587,12.821981 80.7613501,12.8632582 81.2494251,13.1605656 C82.0097065,13.6235396 82.5903763,14.9354851 82.0894719,15.9724353 C81.9912991,16.1738011 81.7508873,16.4527011 81.4669671,16.5129435 C80.8768147,16.6378907 80.4367105,16.2820143 80.3575029,15.8909965 C80.2838733,15.5234063 80.5716981,15.2445063 80.5465971,14.9985165 C80.4757565,14.2968041 79.6401722,14.5879757 79.1939322,14.8908611 C78.4263994,15.4101729 77.5690608,16.3372365 76.4902756,16.4593947 C76.3424586,16.4744553 76.034553,16.4744553 75.8404386,16.4331781 C75.3328407,16.3199447 74.9139329,15.8430257 74.8107399,15.3778205 C74.6952753,14.8417747 74.8006995,14.2281947 74.9195109,13.7010738 C75.2508441,12.233502 76.0942376,11.053755 76.6693294,9.80372525 C75.7182804,9.56554465 74.8235693,9.74850305 73.7949861,9.71893965 C72.7519001,9.69049185 71.9079487,9.63192285 71.0249513,9.59176125 C69.2929824,9.50753345 67.4751122,9.53040325 65.6951725,9.45398465 C65.2416811,9.43557725 64.8043659,9.47294985 64.3703975,9.50864905 C63.8332361,9.55327305 63.3256381,9.74069385 62.8007483,9.61742005 C62.3255027,9.50418665 61.7699339,9.13046066 61.7465063,8.69816567 C61.7264255,8.34173148 62.0387935,7.93342189 62.2870145,7.83078669 C62.6501423,7.68408529 63.6011913,7.77891129 64.2080777,7.77891129 C67.7216598,7.77891129 70.518469,7.88991349 73.7682117,8.12976748 C74.6171833,8.19168328 75.6089516,8.27981568 76.620243,8.28427808 C76.9666368,8.28650928 77.5567892,8.37910408 77.7882762,8.31886168 C78.0744276,8.24523208 78.5234566,7.5217655 78.7337472,7.2908363 C79.0712162,6.92436171 80.0680047,5.86119493 80.5465971,6.72411151 C80.9783343,7.5000113 80.2124749,8.06004248 79.9514246,8.37352608" id="Fill-7" fill="#FEFEFE"></path>
                            <path d="M56.424704,11.9001049 C55.8440342,11.6635977 55.1423218,11.6463059 54.4657104,11.8694259 C53.8855985,12.0624247 52.1759415,13.1562705 51.1719015,13.6594061 C50.6620723,13.9154363 49.0377588,14.8558871 48.3237748,15.0159757 C47.4742454,15.2067433 46.1243694,15.2798151 45.9436422,14.4754675 C47.2115216,14.4843923 48.9278722,13.4719853 49.327257,12.2370161 C49.5910964,11.4220704 49.5347586,10.7766958 49.1426252,10.2802538 C48.8034828,9.85074778 47.988537,9.70181519 47.3258706,9.91377918 C46.3156948,10.2395344 45.6061732,10.9663478 45.0885349,11.8432093 C44.9780905,12.0295145 44.7800715,12.3859487 44.6378325,12.7267645 C44.6177517,12.7758509 44.5965553,12.8360933 44.5708965,12.8991247 C44.5474689,12.9515579 44.5547203,12.9576937 44.3611637,12.9108385 C44.1508731,12.8589631 43.9734927,12.7836601 43.8334849,12.7183975 C43.5289261,12.5722539 43.2745693,12.2866603 43.1568735,11.9597895 C43.0174235,11.5710029 43.0698567,11.0198966 42.6966885,11.013203 C42.3246359,11.007625 42.1015159,11.7277447 42.1829547,12.2587703 C42.2459861,12.6681955 42.5260017,13.2377093 42.8422743,13.5417103 C43.2795895,13.9634071 43.6393705,14.1681197 44.2267339,14.3917975 C44.2562973,14.6584259 44.3382939,14.9529443 44.4074611,15.1258623 C44.7203869,15.9134759 45.1532397,16.3407506 46.0234076,16.5856248 C46.8344488,16.8126494 47.9394506,16.7211702 48.6930384,16.4746226 C49.2006364,16.3100716 50.7055807,15.5681977 51.2840193,15.2775839 C51.8702671,14.9841811 53.2798277,14.1424609 53.8326075,13.8841995 C54.2085647,13.7084925 54.8734622,13.2577901 55.356517,13.3118967 C55.5735012,13.3381133 55.8133552,13.4374017 55.8172598,13.6649841 C55.82228,14.0409413 55.3726932,14.2662925 55.0865418,14.4481353 C54.7323388,14.6740443 54.3033907,14.7750061 54.2749429,15.1782955 C54.2453795,15.5955299 54.6157586,15.8415197 54.9225486,15.8822391 C55.1624026,15.9123603 55.5260882,15.8231123 55.8172598,15.6925871 C56.2495548,15.4962415 56.8252044,15.0288051 57.0617116,14.6377873 C57.6691558,13.6304005 57.2971032,12.2543079 56.424704,11.9001049 M47.9126762,11.258635 C48.3683988,11.2324184 48.3115032,11.8861599 48.0203316,12.2325537 C47.67338,12.6464413 46.8327754,13.0876611 46.100384,13.0430371 C46.1416612,12.4796591 47.1228314,11.303259 47.9126762,11.258635" id="Fill-9" fill="#FEFEFE"></path>
                            <path d="M75.1278492,26.1250644 C74.8182702,26.1194864 74.392111,26.1674572 74.314019,26.1730352 C72.6456392,26.2829218 70.9594098,26.324199 69.2966081,26.2065032 C69.2966081,26.2065032 66.6487315,26.0882496 63.3543648,25.5789783 C60.6412257,25.1589549 58.1729607,24.6240247 56.0086968,24.0929991 C48.6613553,22.2924207 43.3594665,18.1635852 42.4558305,17.4049772 C40.6591567,15.8983595 38.8591361,14.3013781 37.721782,12.2670816 C38.048095,11.593817 38.3543272,10.8792752 38.9121271,10.4564628 C39.8497889,9.74526781 40.9453081,9.31353062 41.9967611,8.80704823 C43.2791433,8.18844804 44.6055916,7.52020366 45.7725092,6.69912207 C45.9443116,6.57919508 46.1144406,6.45703688 46.2789916,6.32762728 C46.5885706,6.08219529 46.9539296,5.78823469 47.1357724,5.4256647 C47.3382538,5.02349091 47.474357,4.41883572 47.5156342,3.85768894 C47.6004198,2.67905756 47.3114794,1.98069198 46.8379072,1.15180119 C46.562354,0.668746405 46.0865506,0.00329101993 45.5125744,0.0719004184 C45.371451,0.0880766181 45.0836262,0.291115814 44.863853,0.422756611 C43.3890299,1.30631179 42.2812391,2.61267936 41.2392687,3.80302454 C39.9546553,5.2694807 38.7559432,6.68183027 37.7491142,8.34630544 C37.2677328,8.56440523 36.8605388,8.73397643 36.2609038,8.67094503 C35.7968142,8.62185863 35.487793,8.32789804 35.1525552,8.29275664 C34.6471884,8.23976564 34.4184904,8.62185863 34.4759438,9.10324002 C34.5713276,9.8891802 35.1938324,10.8954514 35.4777526,11.4019338 C34.757075,12.8990689 33.5154123,14.6304801 32.7177583,16.2151899 C32.4349537,16.7785679 32.1019471,17.4311938 32.0417047,18.0815886 C31.9095061,19.4967272 33.5912731,20.1287146 34.1786365,19.0281752 C34.2182403,18.7537376 34.1100271,18.5032854 34.0971977,18.2439084 C34.0509003,17.3017842 34.7659998,16.5041303 35.1798874,15.7840105 C35.680234,14.9104957 36.1008152,14.0737957 36.7740798,13.6191887 C38.123398,15.5346739 39.6869113,17.422269 41.3485975,19.0828396 C42.0179575,19.7527574 45.0217104,22.0614915 45.8098818,22.6248695 C46.5751834,23.1703979 47.3968228,23.6116177 48.3272331,24.1119643 C49.2353315,24.6000393 50.5327743,25.0691491 51.5083665,25.3971355 C52.8309102,25.8428177 55.227219,26.3755166 56.7544754,26.6438184 C58.7101221,26.9857498 61.0032379,27.1904624 62.9845434,27.2317396 C64.8130118,27.272459 66.4568483,27.2534938 68.8983389,27.1318934 C69.7668335,27.088385 73.7071326,26.7503582 74.7820132,26.5116198 C74.860663,26.4954436 75.4809365,26.3431642 75.4619713,26.2048298 C75.4536043,26.1468186 75.3119232,26.12618 75.1278492,26.1250644 M43.3750849,4.72283672 C43.6194012,4.45453492 43.9061104,4.14216693 44.1883572,3.88502113 C44.5631988,3.54085854 45.0077654,2.98305855 45.6207876,3.12752875 C45.3842804,4.02670233 44.7294232,4.62577952 44.105245,5.15624731 C43.4738154,5.6922931 42.6956845,6.10116049 41.9420967,6.50723888 C42.2801235,5.95278569 42.8178427,5.3358589 43.3750849,4.72283672" id="Fill-11" fill="#FEFEFE"></path>
                            <path d="M97.7677793,11.3324877 C95.3948981,9.43485211 93.197724,12.5786128 92.2232474,14.1053114 C91.6297482,15.0334906 91.0490784,14.6151406 91.164543,13.1988864 C91.2861434,11.7201587 91.7691982,10.1995959 92.4569656,8.96964692 C93.200513,7.64375635 93.777836,7.43904376 94.2419256,6.75127637 C94.4533318,6.43890838 94.3819334,6.08693659 94.2620064,5.90899839 C93.9446182,5.4426776 93.4799708,5.3785306 93.0086298,5.5603734 C91.9142262,5.98430139 90.6502514,7.83731295 90.0673504,9.8409305 C89.2273037,12.7336812 88.8636181,16.4999468 91.309571,16.9528803 C93.476624,17.3561697 94.6268075,11.4133687 96.7609503,12.8195824 C97.7817243,13.4973094 97.9574313,14.8795378 99.0925543,15.7831738 C101.807367,17.9446487 105.772767,11.2320837 104.237701,9.9346409 C103.993943,9.72992831 103.486345,9.55979931 103.199636,9.8465085 C103.012215,10.0339293 103.08194,10.3691671 103.03118,10.7256013 C102.843759,12.0397781 102.586613,12.9383938 101.154741,14.145473 C99.787573,15.3012346 98.8582783,12.2048869 97.7677793,11.3324877" id="Fill-13" fill="#FEFEFE"></path>
                            <path d="M62.1535888,13.8218932 C62.3432408,13.719258 62.660629,13.5257014 63.0471844,13.3466476 C63.4326242,13.1670361 63.8849999,13.0242393 64.3312399,12.9667859 C65.1322407,12.8630351 65.7151417,12.9589767 66.1636129,13.2401079 C66.5986969,13.5145454 67.0315497,13.889387 67.3266259,13.9613432 C67.6060837,14.028837 67.7444181,13.8274712 68.2637298,13.4939068 C68.8800988,13.1040047 69.4551906,12.7988881 69.8015844,12.6237389 C71.3941034,11.8182757 72.4795822,11.5449537 73.1428063,11.5142747 C73.8183021,11.4808067 74.0185523,11.8444923 74.0910663,12.0525517 C74.2411145,12.4859623 73.9739283,13.1781921 73.4378825,13.1363571 C72.7768895,13.0844817 71.8102222,13.437569 71.501201,13.5396464 C70.873676,13.7454746 70.3593844,13.9752882 69.71903,14.3707684 C69.1021032,14.751188 68.4717892,15.3469184 68.2458802,15.518163 C67.7901577,15.8634412 67.1564969,16.2271268 66.6126419,15.9984288 C66.4408395,15.925357 66.1892717,15.5343392 66.0844053,15.3112192 C65.6744223,14.447187 64.7858469,14.282636 63.7695353,14.8588434 C62.7169668,15.4885996 61.7006552,16.1618642 61.2683602,16.3470538 C60.8327184,16.5355902 59.2597224,16.8156058 58.6115589,15.8840798 C57.2739545,13.9613432 59.425389,10.8259495 62.1123116,11.0407025 C62.8703618,11.1015027 63.118025,11.2476463 63.3400294,11.5577831 C63.5865769,11.9052925 63.505696,12.6493977 63.118025,12.6237389 C61.609176,12.5199881 60.0774572,12.8228735 59.8643776,14.1604778 C59.8610308,14.1783274 59.8342564,14.6530152 60.027813,14.7601128 C60.323447,14.9285684 60.6843436,14.7601128 60.8845938,14.6641712 C61.241028,14.4884642 61.7759582,14.028837 62.1535888,13.8218932" id="Fill-15" fill="#FEFEFE"></path>
                            <path d="M126.454205,6.53233988 C126.870324,7.32218466 124.766861,9.04690222 123.722101,11.192201 C123.299847,12.056791 122.941739,12.8393843 122.777188,13.7458093 C122.554068,14.9712959 122.837988,15.0092263 123.343913,14.4754117 C124.375843,13.3938375 126.136817,11.2585792 129.283367,10.9545782 C130.175847,10.9110698 130.64663,11.036017 130.91047,11.1537128 C131.562538,11.4426532 131.130243,12.4656583 130.468692,12.4556179 C130.222702,12.4522711 129.833916,12.1984722 129.035146,12.3446157 C127.478326,12.6313249 127.061092,13.6465209 127.273614,14.4397125 C127.572037,15.5553125 129.238743,14.1781043 130.277924,13.5310563 C131.164269,12.9777187 131.675771,12.2988762 132.180022,11.6429034 C132.313337,11.206146 132.379715,10.8140126 132.548728,10.2974898 C133.083658,8.66090463 133.494199,7.65574905 134.559039,6.36890448 C135.582044,5.13337751 136.761791,5.93103149 136.064541,7.49119806 C135.311511,9.17017602 134.874754,9.85627 133.617473,11.8314398 C133.469098,12.067947 133.302316,12.3674855 133.164539,12.6212845 C132.916876,13.7000697 133.267732,15.0069951 133.728475,14.7894531 C135.579255,13.9198429 134.801682,16.4985523 133.469098,16.2514469 C132.423223,16.0562169 132.070136,14.5189201 132.007104,13.6933761 C131.824146,13.8874905 131.730436,13.9812009 131.540784,14.1496565 C129.918701,15.6043989 127.603831,17.2393106 126.265669,15.9965323 C125.808273,15.5703731 125.569535,14.7403667 125.753609,13.9572155 C124.874516,14.7587741 124.694904,15.1202285 124.162763,15.6880689 C123.544163,16.3473885 122.903809,16.8449461 122.031967,16.6011875 C120.847758,16.2698543 120.927523,14.7794127 121.181322,13.5656399 C121.431774,12.4918749 121.859607,11.3969136 122.447528,10.285776 C123.119119,9.11328042 123.923467,7.96700145 124.906868,6.63162827 C125.266649,6.14020649 126.134586,5.92991589 126.454205,6.53233988" id="Fill-17" fill="#FEFEFE"></path>
                            <polygon id="Fill-19" fill="#FEFEFE" points="99.7315141 21.0209714 103.266293 21.0209714 103.266293 21.8152786 100.624552 21.8152786 100.624552 23.716261 103.17816 23.716261 103.17816 24.5161462 100.624552 24.5161462 100.624552 26.4528277 103.351078 26.4528277 103.351078 27.2471349 99.7315141 27.2471349"></polygon>
                            <polygon id="Fill-21" fill="#FEFEFE" points="109.987671 21.0209714 110.836085 21.0209714 110.836085 27.2560597 110.06911 27.2560597 105.899555 22.4522862 105.899555 27.2560597 105.060624 27.2560597 105.060624 21.0209714 105.782975 21.0209714 109.987671 25.8637909"></polygon>
                            <polygon id="Fill-23" fill="#FEFEFE" points="112.371373 21.0112099 117.58011 21.0112099 117.58011 21.8066327 115.405805 21.8066327 115.405805 27.2557808 114.509421 27.2557808 114.509421 21.8066327 112.371373 21.8066327"></polygon>
                            <mask id="mask-3" fill="white">
                                <use xlink:href="#path-2"></use>
                            </mask>
                            <g id="Clip-26"></g>
                            <polygon id="Fill-25" fill="#FEFEFE" mask="url(#mask-3)" points="119.164485 27.2563386 120.056965 27.2563386 120.056965 21.0212503 119.164485 21.0212503"></polygon>
                            <polygon id="Fill-27" fill="#FEFEFE" mask="url(#mask-3)" points="127.126354 21.0209714 127.974768 21.0209714 127.974768 27.2560597 127.207793 27.2560597 123.037681 22.4522862 123.037681 27.2560597 122.198749 27.2560597 122.198749 21.0209714 122.9211 21.0209714 127.126354 25.8637909"></polygon>
                            <path d="M95.7653889,24.1902236 L97.8588122,24.1902236 L97.8588122,26.83308 C97.0907217,27.1655288 96.3298825,27.332311 95.5740635,27.332311 C94.5410179,27.332311 93.7160317,27.0305412 93.0996627,26.4281172 C92.4805048,25.8256932 92.1725992,25.0827036 92.1725992,24.1991484 C92.1725992,23.2676225 92.4922186,22.4917227 93.1308995,21.8731225 C93.7718117,21.2539645 94.5739281,20.9449433 95.5378065,20.9449433 C95.8886627,20.9449433 96.2216693,20.9828737 96.5373841,21.0581767 C96.8530989,21.1340375 97.2513681,21.2734875 97.733865,21.4754111 L97.733865,22.3862985 C96.9886443,21.9545613 96.2517905,21.7386927 95.5205147,21.7386927 C94.8388831,21.7386927 94.2643491,21.9707375 93.7969127,22.4353849 C93.3294763,22.9000323 93.0963159,23.4689882 93.0963159,24.144484 C93.0963159,24.8523322 93.3294763,25.4324442 93.7969127,25.882031 C94.2643491,26.3299444 94.8656575,26.5552956 95.6002801,26.5552956 C95.9572721,26.5552956 96.3851047,26.4738568 96.8809889,26.3104214 L96.9657745,26.2842048 L96.9657745,24.9845308 L95.7653889,24.9845308 L95.7653889,24.1902236 Z" id="Fill-28" fill="#FEFEFE" mask="url(#mask-3)"></path>
                            <path d="M9.78029765,6.09112009 C8.20395488,5.73078129 9.52928765,4.74124412 9.52928765,4.74124412 C9.52928765,4.74124412 10.9187674,3.64293594 11.976914,3.66692134 C12.6245198,3.68142414 14.138389,4.54322512 14.9181933,5.05640111 C15.3571819,5.3447837 16.1063073,6.13128169 15.2071337,6.49942968 C14.8395435,6.65003567 14.3854943,6.71864507 13.8394082,6.71864507 C12.816403,6.71864507 11.472105,6.47879108 9.78029765,6.09112009 M0.253073854,11.1079732 C-0.93225112,17.229828 2.14568921,23.2077705 7.4347487,25.8779591 C8.10131968,26.2120812 8.46277407,26.3230834 8.53417247,26.1423562 C8.55257987,26.0943854 8.52301647,26.0235449 8.44604008,25.9538199 C7.86927489,25.4378549 4.56207876,23.3449893 3.15753839,19.7215206 C2.8317832,18.8814738 1.94599682,16.5638149 2.40116161,14.0615241 C2.6293018,12.8020117 3.75884678,11.9390952 4.77850516,11.8816418 C7.94457789,11.6953366 9.91305404,15.2892419 10.6510234,20.481802 C11.3906662,25.6793823 12.582127,27.0643996 14.7106917,27.2395488 C17.6709363,27.4827496 20.931835,23.9005581 21.2598214,15.9781249 C21.2966362,15.0973587 21.4427798,14.7280951 21.743434,14.7314419 C22.1205068,14.7381355 22.9070048,17.4245002 23.0247006,20.721656 C23.0855008,22.4296395 23.5138911,23.4124831 24.6077369,21.8316779 C25.6982359,20.2519884 26.5494387,18.2416772 26.9220491,16.3144783 C27.9935828,10.7844492 25.7116231,5.4797713 21.339029,2.50892857 C20.9580516,2.26516997 20.703137,2.33489497 20.672458,2.44924397 C20.652935,2.52510476 20.6841718,2.64503176 20.8598788,2.79898456 C22.3586874,4.11483473 25.3735963,7.21006686 25.9531505,11.5385948 C26.5806755,16.2045917 24.7918109,20.0054408 24.4783273,17.737426 C24.3411085,16.7305971 24.2284329,15.7064763 23.9389347,14.6226709 C23.7292019,13.8445399 23.5562839,13.1868937 23.1368184,12.2280356 C23.0141024,11.94802 22.8428578,11.6429034 22.7067546,11.4381908 C21.813159,10.0871992 20.588788,10.235574 19.9383932,11.4783524 C18.7921142,13.6738531 19.1680714,25.5800939 15.0476029,24.9659561 C13.432772,24.7261021 13.8109604,22.8502207 13.5214622,18.1228658 C12.9798384,9.28452502 7.63611449,8.81708863 8.25081008,8.45396083 C8.99379966,8.01720344 10.7620256,8.89518063 13.798131,9.01287642 C15.6600673,9.08706382 18.3469899,8.76688663 18.9025586,7.86938645 C19.4319108,7.00925887 18.7636664,5.4133931 16.8347941,3.97203793 C15.2009979,2.75101376 13.2314062,2.13631817 14.7854369,1.72019938 C15.4190977,1.54783919 16.6953441,1.49150139 17.7819385,1.61589078 C18.3944029,1.68728918 19.082728,1.81948778 19.4458558,1.85853378 C19.8073102,1.89869538 19.905483,1.66888178 19.4079254,1.38273039 C18.3140797,0.826603802 17.4411227,0.566669008 16.1799369,0.320121413 C15.3025175,0.150550217 14.4312339,0.0663224185 13.569433,0.0663224185 C7.1982415,0.0663224185 1.51481743,4.59119592 0.253073854,11.1079732" id="Fill-29" fill="#FEFEFE" mask="url(#mask-3)"></path>
                        </g>
                    </g>
                </g>
            </g>
        </g>
    </g>
</svg>