<?xml version="1.0" encoding="UTF-8"?>
<svg width="180px" height="36px" viewBox="0 0 180 36" version="1.1" xmlns="http://www.w3.org/2000/svg" xmlns:xlink="http://www.w3.org/1999/xlink">
    <!-- Generator: Sketch 46.2 (44496) - http://www.bohemiancoding.com/sketch -->
    <title>Page 1</title>
    <desc>Created with Sketch.</desc>
    <defs>
        <polygon id="path-1" points="0.308210108 0.0860557769 56.1411851 0.0860557769 56.1411851 35.035208 0.308210108 35.035208"></polygon>
        <polygon id="path-3" points="0 35.1394422 179.30008 35.1394422 179.30008 0.0860557769 0 0.0860557769"></polygon>
    </defs>
    <g id="Page-1" stroke="none" stroke-width="1" fill="none" fill-rule="evenodd">
        <g id="DESKTOP-LANDING-V1" transform="translate(-205.000000, -34.000000)">
            <g id="Page-1" transform="translate(205.000000, 34.000000)">
                <polygon id="Fill-1" fill="#EB1B38" points="175.917442 9.24396813 177.403339 9.24396813 177.403339 9.46771315 176.784454 9.46771315 176.784454 11.0045259 176.529155 11.0045259 176.529155 9.46771315 175.917442 9.46771315"></polygon>
                <polygon id="Fill-2" fill="#EB1B38" points="179.06357 9.24669323 178.473371 9.96812749 177.881737 9.24669323 177.642215 9.24669323 177.642215 11.0036653 177.895363 11.0036653 177.895363 9.63752988 178.451139 10.3152191 178.497753 10.3152191 179.044924 9.63752988 179.044924 11.0036653 179.299506 11.0036653 179.299506 9.24669323"></polygon>
                <g id="Group-31" transform="translate(0.000000, 0.631363)">
                    <path d="M171.715554,31.0873625 L174.407665,31.0873625 L174.407665,34.4851315 C173.420175,34.9139761 172.441291,35.1269641 171.469578,35.1269641 C170.14145,35.1269641 169.08153,34.7404303 168.286948,33.9659283 C167.493801,33.189992 167.09651,32.2347729 167.09651,31.0988367 C167.09651,29.9012271 167.508143,28.9051315 168.329259,28.1083984 C169.15396,27.3123825 170.183761,26.9150916 171.422964,26.9150916 C171.87404,26.9150916 172.30145,26.9638566 172.708781,27.0621036 C173.11396,27.1581992 173.625992,27.3374821 174.247028,27.5985179 L174.247028,28.7695936 C173.289657,28.2145339 172.340892,27.937004 171.40145,27.937004 C170.525116,27.937004 169.787187,28.2353307 169.184797,28.8312669 C168.585275,29.4286375 168.28408,30.1615458 168.28408,31.029992 C168.28408,31.9400319 168.585275,32.6844143 169.184797,33.2624223 C169.787187,33.8397131 170.558821,34.1294343 171.504,34.1294343 C171.962247,34.1294343 172.512287,34.0232988 173.149817,33.8131793 L173.258821,33.7794741 L173.258821,32.1085578 L171.715554,32.1085578 L171.715554,31.0873625 Z" id="Fill-3" fill="#EB1B38"></path>
                    <path d="M139.569275,17.7703745 C139.809514,17.6377052 140.221147,17.3895777 140.71812,17.1586614 C141.213657,16.9284622 141.793817,16.7441594 142.368956,16.671012 C143.397323,16.5369084 144.148159,16.6609721 144.723299,17.0224064 C145.282661,17.3745179 145.839155,17.8564303 146.220669,17.9489402 C146.579235,18.0357131 146.757801,17.7768287 147.423299,17.3487012 C148.217163,16.8467092 148.956526,16.4544382 149.401865,16.229259 C151.450709,15.1937211 152.844813,14.8423267 153.698199,14.8028845 C154.565928,14.7598566 154.823378,15.2281434 154.915888,15.4956335 C155.107363,16.0521275 154.768876,16.9420876 154.076845,16.8890199 C153.227044,16.8223267 151.987124,17.2755538 151.586964,17.4067888 C150.781625,17.6714104 150.12043,17.9668685 149.295729,18.4753147 C148.499713,18.9651155 147.690789,19.731012 147.400351,19.9511713 C146.815888,20.3950757 146.001227,20.8626454 145.302024,20.5686215 C145.081147,20.4746773 144.757004,19.9719681 144.620032,19.6843984 C144.095092,18.5735618 142.953418,18.3627251 141.646088,19.1035219 C140.293578,19.9131633 138.984096,20.778741 138.432622,21.0168287 C137.871825,21.2592191 135.84808,21.6192191 135.012622,20.4216096 C133.297243,17.9489402 136.062502,13.9179442 139.513339,14.1940398 C140.491506,14.2722072 140.807761,14.4608127 141.093896,14.8588207 C141.412303,15.3055936 141.309036,16.262247 140.807761,16.229259 C138.867203,16.0958725 136.900829,16.485992 136.626167,18.2049562 C136.622582,18.2279044 136.588876,18.8389004 136.836287,18.9758725 C137.216367,19.1931633 137.679633,18.9758725 137.937801,18.8525259 C138.396048,18.6266295 139.082343,18.0357131 139.569275,17.7703745" id="Fill-5" fill="#EB1B38"></path>
                    <path d="M102.788964,10.765004 C104.180199,10.9385498 106.03757,10.8948048 107.659004,10.8697052 C108.229124,10.8603825 108.861633,10.7958406 109.258207,10.9385498 C109.715737,11.1049243 110.372629,11.976239 110.231355,12.6754422 C110.027689,13.6923347 108.821474,13.3309004 107.798127,13.1638088 C106.108566,12.886996 104.388884,12.7184701 102.303466,12.8152829 C101.914064,12.8339283 101.470876,12.7815777 101.189044,12.8504223 C100.798207,12.9458008 100.459004,13.5969562 100.146335,14.0673944 C99.5023506,15.0441275 99.0426693,15.9226135 98.5908765,16.9796653 C98.3420319,17.5634104 98.0874502,18.3594263 98.506255,18.5638088 C99.3524701,18.9883506 100.587371,17.1682709 102.127052,16.7093068 C102.888645,16.4841275 103.830239,16.5371952 104.457729,16.9194263 C105.435179,17.5146454 106.181713,19.2013386 105.537729,20.5352032 C105.411514,20.7940876 105.10243,21.1526534 104.73741,21.2293865 C103.978685,21.390741 103.412869,20.932494 103.311036,20.4297849 C103.216375,19.9579124 103.586414,19.5993466 103.554143,19.2823745 C103.463068,18.3802231 102.388805,18.7552829 101.8151,19.1439681 C100.828327,19.8123347 99.7260956,21.0042072 98.3391633,21.161259 C98.1491235,21.1806215 97.7532669,21.1806215 97.5037052,21.1275538 C96.8511155,20.9819761 96.3125498,20.3681116 96.1798805,19.7700239 C96.0314343,19.0808606 96.1669721,18.2920159 96.3197211,17.6143267 C96.7456972,15.7275538 97.83,14.2108207 98.5693625,12.6044462 C97.3466534,12.2982311 96.1963745,12.5327331 94.8739841,12.4947251 C93.5329482,12.4588685 92.4479283,12.3828526 91.3127092,12.3312191 C89.0860159,12.2229323 86.7488845,12.2523347 84.4605179,12.1548048 C83.87749,12.1304223 83.315259,12.1784701 82.7573307,12.2243665 C82.0667331,12.2817371 81.4141434,12.5226932 80.7393227,12.3642072 C80.1283267,12.2193466 79.4140637,11.7388685 79.3839442,11.1823745 C79.3581275,10.7248446 79.7597211,10.1991873 80.0788446,10.0679522 C80.5456972,9.87934661 81.7684064,10.0005418 82.5486454,10.0005418 C87.0658566,10.0005418 90.6615538,10.143251 94.8395618,10.4516175 C95.9310359,10.5312191 97.2060956,10.6445259 98.506255,10.6502629 C98.9515936,10.6538486 99.7103187,10.7721753 100.007928,10.6954422 C100.375817,10.6007809 100.953108,9.66994422 101.223466,9.37376892 C101.657331,8.90189641 102.938845,7.53504382 103.554143,8.64444622 C104.109203,9.64269323 103.124582,10.3619761 102.788964,10.765004" id="Fill-7" fill="#EB1B38"></path>
                    <path d="M72.542008,15.2989243 C71.7954741,14.9948606 70.8933227,14.9726295 70.0234422,15.2601992 C69.2776255,15.5076096 67.0796175,16.9139044 65.7887809,17.5614741 C65.1333227,17.8906375 63.0450359,19.099004 62.1271076,19.3048207 C61.0349163,19.5500797 59.2994582,19.6440239 59.0671076,18.6099203 C60.6971474,18.6213944 62.903761,17.3205179 63.4172271,15.7320717 C63.7564303,14.6843426 63.684,13.8546215 63.1798566,13.2163745 C62.7438406,12.6649004 61.6961116,12.4734263 60.8441594,12.7459363 C59.5454343,13.164741 58.633243,14.0984462 57.967745,15.226494 C57.825753,15.4652988 57.5711713,15.9235458 57.3883028,16.3617131 C57.3624861,16.4255378 57.3352351,16.5022709 57.302247,16.5833068 C57.2721275,16.6507171 57.2814502,16.6593227 57.0326056,16.5990837 C56.762247,16.5316733 56.5341992,16.4348606 56.3541992,16.3509562 C55.9626454,16.1630677 55.6356335,15.7966135 55.4843187,15.3763745 C55.3050359,14.8765339 55.3724462,14.1672908 54.8926853,14.1594024 C54.4143586,14.1515139 54.127506,15.0773307 54.2322072,15.7600398 C54.313243,16.2864143 54.673243,17.0186056 55.0798566,17.4101594 C55.6420876,17.9515936 56.1046375,18.2147809 56.8597769,18.5023506 C56.8977849,18.8458566 57.0032032,19.2237849 57.0921275,19.4468127 C57.4944382,20.4594024 58.0509323,21.008008 59.1696574,21.3235458 C60.2123665,21.6147012 61.633004,21.4970916 62.6018486,21.1808367 C63.2544382,20.9692829 65.189259,20.015498 65.9329243,19.6411554 C66.6866295,19.2646614 68.4988207,18.1817928 69.209498,17.849761 C69.6928446,17.6245817 70.5476653,17.0444223 71.1687012,17.1147012 C71.4476653,17.1476892 71.7560319,17.2753386 71.7610518,17.5679283 C71.767506,18.0512749 71.189498,18.3417131 70.8216096,18.5747809 C70.3662311,18.8652191 69.814757,18.9957371 69.7781833,19.513506 C69.7401753,20.0499203 70.2163506,20.3668924 70.6107729,20.4185259 C70.9191394,20.4579681 71.3867092,20.3432271 71.7610518,20.1747012 C72.3168287,19.922988 73.0569084,19.3220319 73.3609721,18.8193227 C74.1419283,17.5241833 73.6636016,15.7543028 72.542008,15.2989243 M61.5985817,14.4742231 C62.1844781,14.4405179 62.1113307,15.280996 61.736988,15.7263347 C61.2909323,16.2584462 60.2102151,16.8256972 59.2686215,16.7683267 C59.3216892,16.0440239 60.5831235,14.5315936 61.5985817,14.4742231" id="Fill-9" fill="#EB1B38"></path>
                    <g id="Group-13" transform="translate(40.876494, 0.000000)">
                        <mask id="mask-2" fill="white">
                            <use xlink:href="#path-1"></use>
                        </mask>
                        <g id="Clip-12"></g>
                        <path d="M55.7110757,33.587498 C55.3130677,33.5803267 54.7651793,33.642 54.6647809,33.6491713 C52.5198406,33.7904462 50.3519522,33.8435139 48.2141833,33.6921992 C48.2141833,33.6921992 44.8099602,33.5401673 40.5745817,32.8854263 C37.0864542,32.3454263 33.9131474,31.6576972 31.1306773,30.974988 C21.6846215,28.6600876 14.8682869,23.3518805 13.7065339,22.3765817 C11.3966534,20.4396096 9.08247012,18.385745 7.62023904,15.7710837 C8.03976096,14.905506 8.43346614,13.9861434 9.15059761,13.4432749 C10.3560956,12.5282151 11.7645418,11.9745896 13.1163347,11.3227171 C14.7650199,10.5274183 16.4703586,9.66901195 17.9705976,8.61196016 C18.1914741,8.45777689 18.4101992,8.30144223 18.621753,8.1343506 C19.019761,7.81952988 19.4894821,7.44160159 19.7232669,6.974749 C19.9835857,6.45769721 20.1585657,5.68032669 20.2116335,4.95960956 C20.3206375,3.44359363 19.9491633,2.54574502 19.3403187,1.48080478 C18.9860558,0.859768924 18.3743426,0.00351394422 17.6364143,0.0917211155 C17.4549801,0.11323506 17.0849402,0.373553785 16.8023904,0.542796813 C14.9062948,1.67873307 13.4820717,3.35897211 12.1424701,4.88933068 C10.4909163,6.77466932 8.9498008,8.59044622 7.65537849,10.7296494 C7.03649402,11.0100478 6.51298805,11.2287729 5.74207171,11.1470199 C5.14541833,11.0846295 4.74812749,10.7059841 4.31713147,10.6615219 C3.66741036,10.5933944 3.37338645,11.0846295 3.447251,11.7035139 C3.56988048,12.7132351 4.3701992,14.0076574 4.73521912,14.6588127 C3.80868526,16.5835936 2.2123506,18.8095697 1.18685259,20.8469402 C0.823266932,21.571243 0.395139442,22.4102869 0.317689243,23.2464622 C0.147729084,25.0658247 2.30988048,25.8783347 3.06501992,24.4634343 C3.11593625,24.1106056 2.97681275,23.7886135 2.96031873,23.4551474 C2.90079681,22.2439124 3.82015936,21.2184143 4.35227092,20.2925976 C4.99553785,19.1695697 5.53625498,18.0938725 6.40183267,17.5094104 C8.13657371,19.9720398 10.1466932,22.3988127 12.2830279,24.5337131 C13.1435857,25.394988 17.0053386,28.3631952 18.0186454,29.087498 C19.0025498,29.7888526 20.0588845,30.3561036 21.2550598,30.9993705 C22.4225498,31.6268606 24.0905976,32.2299681 25.3448606,32.6516414 C27.0451793,33.2246295 30.1259761,33.90949 32.0894821,34.2544303 C34.603745,34.6940319 37.5518725,34.9572191 40.0991235,35.0102869 C42.4498805,35.0626375 44.5632669,35.038255 47.7021514,34.8819203 C48.8187251,34.8259841 53.8845418,34.3914024 55.2664542,34.0844701 C55.3675697,34.0636733 56.1650199,33.8678964 56.1406375,33.6900478 C56.1298805,33.6154661 55.9477291,33.5889323 55.7110757,33.587498 M14.8883665,6.07116335 C15.2024701,5.72765737 15.5710757,5.32462948 15.9339442,4.99403187 C16.4158566,4.55227888 16.9874104,3.83443028 17.7755378,4.02088446 C17.4714741,5.17618327 16.6295618,5.9470996 15.8270916,6.62909163 C15.0152988,7.31825498 14.0149004,7.84319522 13.0460558,8.36598406 C13.4806375,7.65243825 14.1719522,6.8607251 14.8883665,6.07116335" id="Fill-11" fill="#EB1B38" mask="url(#mask-2)"></path>
                    </g>
                    <path d="M125.69443,14.5698884 C122.643753,12.12949 119.818972,16.171243 118.566143,18.1340319 C117.803116,19.3273386 117.056582,18.78949 117.205028,16.9686932 C117.361363,15.0682948 117.982398,13.1126773 118.866622,11.5314024 C119.822558,9.82678088 120.564789,9.56359363 121.161442,8.67937052 C121.433235,8.27777689 121.341442,7.82526693 121.187259,7.59721912 C120.779211,6.99698008 120.181841,6.91450996 119.575865,7.14901195 C118.168853,7.69403187 116.543833,10.0756255 115.79443,12.6515618 C114.71443,16.3706056 114.246861,21.2126773 117.391482,21.7957052 C120.177538,22.3134741 121.656263,14.6731554 124.400008,16.481761 C125.712359,17.3523586 125.938255,19.1301275 127.397618,20.2911633 C130.887896,23.0700478 135.985984,14.4400876 134.012438,12.772757 C133.699052,12.5095697 133.046462,12.2901275 132.677857,12.6587331 C132.4369,12.8996892 132.526542,13.3306853 132.461283,13.7896494 C132.220327,15.478494 131.889729,16.6337928 130.048853,18.1863825 C128.291163,19.6722789 127.096422,15.6907649 125.69443,14.5698884" id="Fill-14" fill="#EB1B38"></path>
                    <path d="M79.9073068,17.7703745 C80.1511315,17.6377052 80.5591793,17.3895777 81.0561514,17.1586614 C81.5516892,16.9284622 82.1332829,16.7441594 82.706988,16.671012 C83.7367888,16.5369084 84.4861912,16.6609721 85.0627649,17.0224064 C85.6221275,17.3745179 86.1786215,17.8564303 86.5579841,17.9489402 C86.9172669,18.0357131 87.0951155,17.7768287 87.7627649,17.3487012 C88.5551952,16.8467092 89.2945578,16.4544382 89.7398964,16.229259 C91.7873068,15.1937211 93.1828446,14.8423267 94.0355139,14.8028845 C94.9039602,14.7598566 95.1614104,15.2281434 95.2546375,15.4956335 C95.4475458,16.0521275 95.1040398,16.9420876 94.4148765,16.8890199 C93.5650757,16.8223267 92.3222869,17.2755538 91.924996,17.4067888 C91.1182231,17.6714104 90.4570279,17.9668685 89.633761,18.4753147 C88.8406135,18.9651155 88.030255,19.731012 87.7398167,19.9511713 C87.1539203,20.3950757 86.339259,20.8626454 85.6400558,20.5686215 C85.4191793,20.4746773 85.095753,19.9719681 84.9609323,19.6843984 C84.4338406,18.5735618 83.2914502,18.3627251 81.9848367,19.1035219 C80.6316096,19.9131633 79.324996,20.778741 78.7692191,21.0168287 C78.2091394,21.2592191 76.1868287,21.6192191 75.3535219,20.4216096 C73.6338406,17.9489402 76.3998167,13.9179442 79.854239,14.1940398 C80.8288207,14.2722072 81.1472271,14.4608127 81.4326454,14.8588207 C81.7496175,15.3055936 81.6456335,16.262247 81.1472271,16.229259 C79.2073865,16.0958725 77.2381434,16.485992 76.9641992,18.2049562 C76.9598964,18.2279044 76.9254741,18.8389004 77.1743187,18.9758725 C77.5543984,19.1931633 78.0183825,18.9758725 78.2758327,18.8525259 C78.7340797,18.6266295 79.4218088,18.0357131 79.9073068,17.7703745" id="Fill-16" fill="#EB1B38"></path>
                    <path d="M162.574924,8.39789641 C163.109904,9.41335458 160.405602,11.6307251 159.062414,14.3888127 C158.519546,15.5010837 158.059147,16.506502 157.847594,17.6718406 C157.560741,19.2473785 157.925761,19.2968606 158.576199,18.6105657 C159.902892,17.2193307 162.166876,14.4741514 166.212215,14.0833147 C167.359625,14.0273785 167.964884,14.1880159 168.304088,14.3400478 C169.142414,14.7108048 168.586637,16.0260239 167.73612,16.0138327 C167.419865,16.0088127 166.920024,15.6832351 165.893092,15.8704064 C163.891578,16.239012 163.355163,17.5441912 163.62839,18.5639522 C164.012056,19.9982151 166.154845,18.2276175 167.490861,17.395745 C168.630382,16.6843506 169.287992,15.8116016 169.936279,14.968255 C170.107673,14.406741 170.193012,13.9025976 170.410303,13.2385339 C171.098032,11.1344701 171.625841,9.8421992 172.994845,8.18777689 C174.310064,6.60004781 175.826797,7.62482869 174.930382,9.63064542 C173.962255,11.7892112 173.400741,12.6712829 171.784327,15.2106454 C171.59357,15.5147092 171.379147,15.8998088 171.202016,16.2261036 C170.88361,17.6130359 171.334685,19.293992 171.927036,19.0135936 C174.306478,17.8963028 173.306797,21.2116016 171.59357,20.8931952 C170.248948,20.6429163 169.795004,18.6657849 169.713968,17.6044303 C169.478749,17.853992 169.358271,17.9744701 169.114446,18.191761 C167.029028,20.0613227 164.052932,22.1639522 162.332534,20.5654661 C161.744486,20.0182948 161.437554,18.9504861 161.674207,17.9443506 C160.544008,18.9748685 160.313092,19.4395697 159.628948,20.1696096 C158.833649,21.0165418 158.010382,21.6569402 156.889506,21.3428367 C155.367036,20.9175777 155.469586,19.0014024 155.79588,17.4402072 C156.117873,16.0597291 156.667912,14.652 157.423769,13.2234741 C158.287195,11.7160637 159.321299,10.2430757 160.585602,8.52554582 C161.048151,7.89375299 162.164008,7.62339442 162.574924,8.39789641" id="Fill-18" fill="#EB1B38"></path>
                    <polygon id="Fill-20" fill="#EB1B38" points="128.219092 27.0254582 132.763554 27.0254582 132.763554 28.0466534 129.367219 28.0466534 129.367219 30.4906375 132.650247 30.4906375 132.650247 31.519004 129.367219 31.519004 129.367219 34.0088845 132.872558 34.0088845 132.872558 35.0300797 128.219092 35.0300797"></polygon>
                    <polygon id="Fill-22" fill="#EB1B38" points="141.404845 27.0254582 142.495602 27.0254582 142.495602 35.0415538 141.509546 35.0415538 136.148988 28.8656175 136.148988 35.0415538 135.070422 35.0415538 135.070422 27.0254582 135.999108 27.0254582 141.404845 33.2515936"></polygon>
                    <polygon id="Fill-24" fill="#EB1B38" points="144.469434 27.0129084 151.166008 27.0129084 151.166008 28.0355378 148.370629 28.0355378 148.370629 35.0411952 147.218199 35.0411952 147.218199 28.0355378 144.469434 28.0355378"></polygon>
                    <mask id="mask-4" fill="white">
                        <use xlink:href="#path-3"></use>
                    </mask>
                    <g id="Clip-27"></g>
                    <polygon id="Fill-26" fill="#EB1B38" mask="url(#mask-4)" points="153.202948 35.0419124 154.350359 35.0419124 154.350359 27.0258167 153.202948 27.0258167"></polygon>
                    <polygon id="Fill-28" fill="#EB1B38" mask="url(#mask-4)" points="163.439068 27.0254582 164.529825 27.0254582 164.529825 35.0415538 163.543769 35.0415538 158.182494 28.8656175 158.182494 35.0415538 157.103928 35.0415538 157.103928 27.0254582 158.032614 27.0254582 163.439068 33.2515936"></polygon>
                    <path d="M123.120072,31.0999841 L125.811466,31.0999841 L125.811466,34.497753 C124.823976,34.9251633 123.845809,35.1395857 122.874096,35.1395857 C121.545968,35.1395857 120.485331,34.7516175 119.6929,33.9771155 C118.896884,33.2026135 118.501028,32.2473944 118.501028,31.1114582 C118.501028,29.9138486 118.911944,28.9163187 119.73306,28.1210199 C120.557044,27.325004 121.588279,26.9277131 122.827482,26.9277131 C123.278558,26.9277131 123.706685,26.9764781 124.112582,27.0732908 C124.518478,27.1708207 125.03051,27.3501036 125.650829,27.6097052 L125.650829,28.7807809 C124.692741,28.2257211 123.74541,27.9481912 122.805251,27.9481912 C121.928916,27.9481912 121.190271,28.2465179 120.589315,28.8438884 C119.988359,29.441259 119.688598,30.1727331 119.688598,31.0411793 C119.688598,31.9512191 119.988359,32.6970359 120.589315,33.2750438 C121.190271,33.8509004 121.963339,34.1406215 122.907801,34.1406215 C123.366765,34.1406215 123.916805,34.0359203 124.554335,33.8258008 L124.663339,33.7920956 L124.663339,32.1211793 L123.120072,32.1211793 L123.120072,31.0999841 Z" id="Fill-29" fill="#EB1B38" mask="url(#mask-4)"></path>
                    <path d="M12.5739681,7.83064542 C10.5473546,7.36737849 12.251259,6.09518725 12.251259,6.09518725 C12.251259,6.09518725 14.0376335,4.68387251 15.3980319,4.71399203 C16.2306215,4.73263745 18.1769163,5.84060558 19.1794661,6.50036653 C19.7438486,6.87112351 20.7069562,7.88227888 19.5509402,8.35558566 C19.0783506,8.54921116 18.4946056,8.63741833 17.7925339,8.63741833 C16.4773147,8.63741833 14.7490279,8.32905179 12.5739681,7.83064542 M0.32536255,14.2805259 C-1.19854183,22.1510438 2.75858964,29.8365418 9.55843028,33.2694502 C10.4154024,33.6997291 10.8801036,33.8424382 10.9718964,33.6100876 C10.9955618,33.5484143 10.9575538,33.4573386 10.8585896,33.3676972 C10.1170757,32.7036335 5.86520319,30.0129562 4.05946614,25.3544701 C3.64066135,24.2744701 2.50185657,21.295506 3.08703586,18.0777371 C3.38034263,16.4584542 4.83253386,15.3497689 6.1434502,15.2751873 C10.2138884,15.0356653 12.7446454,19.6568606 13.6934104,26.3319203 C14.6443267,33.0148685 16.1761195,34.7947888 18.9126932,35.0206853 C22.71851,35.3326375 26.9108606,30.7272191 27.3325339,20.5418008 C27.3798645,19.4101673 27.567753,18.9354263 27.9542869,18.9397291 C28.4390677,18.9476175 29.4502231,22.4020398 29.6015378,26.6402869 C29.6797052,28.8368606 30.2304622,30.0997291 31.636757,28.0673785 C33.038749,26.0364622 34.1330916,23.4526375 34.6121355,20.9749482 C35.989745,13.8645896 33.0559602,7.04466932 27.4343665,3.22522709 C26.9445657,2.91184064 26.6168367,3.0021992 26.5773944,3.14849402 C26.5522948,3.2460239 26.5924542,3.40020717 26.8183506,3.59885259 C28.7452829,5.28984861 32.6213785,9.26921116 33.3664781,14.8341514 C34.173251,20.8329562 31.8734104,25.7202072 31.4703825,22.8036335 C31.2939681,21.5099283 31.1491076,20.1932749 30.7769163,18.7991713 C30.5072749,17.7987729 30.2849641,16.9532749 29.7456813,15.7205259 C29.5879124,15.3605259 29.367753,14.968255 29.1927729,14.7050677 C28.0439283,12.9681753 26.4698247,13.1589323 25.6336494,14.7574183 C24.1599442,17.5793307 24.6432908,32.8872191 19.3458406,32.0969402 C17.269745,31.7892908 17.7559602,29.3768606 17.3837689,23.2998884 C16.6874343,11.9369402 9.81731474,11.3352669 10.6075936,10.8684143 C11.5628127,10.3069004 13.8361195,11.4363825 17.7394661,11.5876972 C20.133251,11.6823586 23.5876733,11.2707251 24.3019363,10.1168606 C24.982494,9.01176096 24.1233705,6.95933068 21.6435299,5.10626295 C19.5430518,3.53646215 17.0108606,2.74618327 19.0087888,2.21120319 C19.8234502,1.99032669 21.464247,1.91717928 22.8612191,2.07781673 C23.6486295,2.16889243 24.5335697,2.33885259 25.0004223,2.38905179 C25.4651235,2.44140239 25.5913386,2.14522709 24.9516574,1.77733865 C23.5453625,1.0630757 22.4230518,0.728175299 20.8016175,0.411920319 C19.6735697,0.193195219 18.5534104,0.085625498 17.4454422,0.085625498 C9.25436653,0.0849083665 1.94751394,5.90299602 0.32536255,14.2805259" id="Fill-30" fill="#EB1B38" mask="url(#mask-4)"></path>
                </g>
            </g>
        </g>
    </g>
</svg>