<?xml version="1.0" encoding="UTF-8"?>
<svg width="188px" height="43px" viewBox="0 0 188 43" version="1.1" xmlns="http://www.w3.org/2000/svg" xmlns:xlink="http://www.w3.org/1999/xlink">
    <!-- Generator: Sketch 46 (44423) - http://www.bohemiancoding.com/sketch -->
    <title>WHITE LOGO Copy</title>
    <desc>Created with Sketch.</desc>
    <defs>
        <filter x="-3.9%" y="-13.9%" width="108.3%" height="142.2%" filterUnits="objectBoundingBox" id="filter-1">
            <feOffset dx="0" dy="2" in="SourceAlpha" result="shadowOffsetOuter1"></feOffset>
            <feGaussianBlur stdDeviation="2" in="shadowOffsetOuter1" result="shadowBlurOuter1"></feGaussianBlur>
            <feColorMatrix values="0 0 0 0 0   0 0 0 0 0   0 0 0 0 0  0 0 0 0.0505831069 0" type="matrix" in="shadowBlurOuter1" result="shadowMatrixOuter1"></feColorMatrix>
            <feMerge>
                <feMergeNode in="shadowMatrixOuter1"></feMergeNode>
                <feMergeNode in="SourceGraphic"></feMergeNode>
            </feMerge>
        </filter>
        <polygon id="path-2" points="0 35.1394422 179.30008 35.1394422 179.30008 0.0853386454 0 0.0853386454"></polygon>
    </defs>
    <g id="Page-1" stroke="none" stroke-width="1" fill="none" fill-rule="evenodd">
        <g id="DESKTOP-LANDING-V1" transform="translate(-201.000000, -35.000000)">
            <g id="WHITE-LOGO-Copy" filter="url(#filter-1)" transform="translate(205.000000, 36.000000)">
                <polygon id="Fill-1" fill="#FEFEFE" points="175.917442 9.24432669 177.403339 9.24432669 177.403339 9.46807171 176.784454 9.46807171 176.784454 11.0048845 176.529155 11.0048845 176.529155 9.46807171 175.917442 9.46807171"></polygon>
                <polygon id="Fill-2" fill="#FEFEFE" points="179.06357 9.24705179 178.473371 9.96848606 177.881737 9.24705179 177.642215 9.24705179 177.642215 11.0033068 177.895363 11.0033068 177.895363 9.63788845 178.451139 10.3155777 178.497753 10.3155777 179.044924 9.63788845 179.044924 11.0033068 179.299506 11.0033068 179.299506 9.24705179"></polygon>
                <g id="Group-30" transform="translate(0.000000, 0.631721)">
                    <path d="M171.715554,31.0873625 L174.407665,31.0873625 L174.407665,34.4851315 C173.420175,34.9139761 172.441291,35.1269641 171.469578,35.1269641 C170.14145,35.1269641 169.08153,34.7404303 168.286948,33.9659283 C167.493801,33.189992 167.09651,32.2347729 167.09651,31.0988367 C167.09651,29.9012271 167.508143,28.9051315 168.329259,28.1083984 C169.15396,27.3123825 170.183761,26.9150916 171.422964,26.9150916 C171.87404,26.9150916 172.30145,26.9638566 172.708781,27.0621036 C173.11396,27.1581992 173.625992,27.3374821 174.247028,27.5985179 L174.247028,28.7695936 C173.289657,28.2145339 172.340892,27.937004 171.40145,27.937004 C170.525116,27.937004 169.787187,28.2353307 169.184797,28.8312669 C168.585275,29.4286375 168.28408,30.1615458 168.28408,31.029992 C168.28408,31.9400319 168.585275,32.6844143 169.184797,33.2624223 C169.787187,33.8397131 170.558821,34.1294343 171.504,34.1294343 C171.962247,34.1294343 172.512287,34.0232988 173.149817,33.8131793 L173.258821,33.7794741 L173.258821,32.1085578 L171.715554,32.1085578 L171.715554,31.0873625 Z" id="Fill-3" fill="#FEFEFE"></path>
                    <path d="M139.569275,17.7700159 C139.809514,17.6380637 140.221147,17.3892191 140.71812,17.1590199 C141.213657,16.9281036 141.793817,16.7445179 142.368956,16.6706534 C143.397323,16.5372669 144.148159,16.6606135 144.723299,17.0220478 C145.282661,17.3748765 145.839155,17.8567888 146.220669,17.9492988 C146.579235,18.0360717 146.757801,17.7771873 147.423299,17.3483426 C148.217163,16.8470677 148.956526,16.4547968 149.401865,16.2296175 C151.450709,15.1940797 152.844813,14.8426853 153.698199,14.803243 C154.565928,14.7602151 154.823378,15.2277849 154.915888,15.4952749 C155.107363,16.0524861 154.768876,16.9424462 154.076845,16.8886614 C153.227044,16.8219681 151.987124,17.2759124 151.586964,17.4071474 C150.781625,17.6717689 150.12043,17.9672271 149.295729,18.4756733 C148.499713,18.964757 147.690789,19.7306534 147.400351,19.9508127 C146.815888,20.3947171 146.001227,20.8622869 145.302024,20.5682629 C145.081147,20.4743187 144.757004,19.9716096 144.620032,19.684757 C144.095092,18.5739203 142.953418,18.3623665 141.646088,19.1031633 C140.293578,19.9128048 138.984096,20.7783825 138.432622,21.0164701 C137.871825,21.2588606 135.84808,21.6188606 135.012622,20.421251 C133.297243,17.9492988 136.062502,13.9183028 139.513339,14.1943984 C140.491506,14.2725657 140.807761,14.4604542 141.093896,14.8591793 C141.412303,15.3059522 141.309036,16.2626056 140.807761,16.2296175 C138.867203,16.0962311 136.900829,16.4856335 136.626167,18.2053147 C136.622582,18.2282629 136.588876,18.8385418 136.836287,18.9762311 C137.216367,19.1928048 137.679633,18.9762311 137.937801,18.8528845 C138.396048,18.626988 139.082343,18.0360717 139.569275,17.7700159" id="Fill-5" fill="#FEFEFE"></path>
                    <path d="M102.788964,10.7653625 C104.180199,10.9389084 106.03757,10.8944462 107.659004,10.8693466 C108.229124,10.860741 108.861633,10.7961992 109.258207,10.9389084 C109.715737,11.1045657 110.372629,11.9765976 110.231355,12.6758008 C110.027689,13.6926932 108.821474,13.331259 107.798127,13.1634502 C106.108566,12.8873546 104.388884,12.7181116 102.303466,12.8156414 C101.914064,12.8342869 101.470876,12.7812191 101.189044,12.8507809 C100.798207,12.9461594 100.459004,13.5973147 100.146335,14.067753 C99.5023506,15.0444861 99.0426693,15.922255 98.5908765,16.9800239 C98.3420319,17.5637689 98.0874502,18.3597849 98.506255,18.5641673 C99.3524701,18.9887092 100.587371,17.1679124 102.127052,16.7096653 C102.888645,16.4844861 103.830239,16.5375538 104.457729,16.9197849 C105.435179,17.515004 106.181713,19.2016972 105.537729,20.5348446 C105.411514,20.7937291 105.10243,21.1522948 104.73741,21.229745 C103.978685,21.3903825 103.412869,20.9328526 103.311036,20.4301434 C103.216375,19.9575538 103.586414,19.598988 103.554143,19.2827331 C103.463068,18.3805817 102.388805,18.7549243 101.8151,19.1443267 C100.828327,19.8119761 99.7260956,21.0038486 98.3391633,21.1609004 C98.1491235,21.1802629 97.7532669,21.1802629 97.5037052,21.1271952 C96.8511155,20.9816175 96.3125498,20.3684701 96.1798805,19.7703825 C96.0314343,19.0812191 96.1669721,18.2923745 96.3197211,17.6146853 C96.7456972,15.7279124 97.83,14.2111793 98.5693625,12.6040876 C97.3466534,12.2978725 96.1963745,12.5330916 94.8739841,12.4950837 C93.5329482,12.45851 92.4479283,12.3832112 91.3127092,12.3315777 C89.0860159,12.2232908 86.7488845,12.2526932 84.4605179,12.1544462 C83.87749,12.1307809 83.315259,12.1788287 82.7573307,12.2247251 C82.0667331,12.2820956 81.4141434,12.5230518 80.7393227,12.3645657 C80.1283267,12.218988 79.4140637,11.73851 79.3839442,11.1827331 C79.3581275,10.7244861 79.7597211,10.1995458 80.0788446,10.0675936 C80.5456972,9.87898805 81.7684064,10.0009004 82.5486454,10.0009004 C87.0658566,10.0009004 90.6615538,10.1436096 94.8395618,10.4519761 C95.9310359,10.5315777 97.2060956,10.6448845 98.506255,10.6506215 C98.9515936,10.65349 99.7103187,10.7725339 100.007928,10.6950837 C100.375817,10.6004223 100.953108,9.67030279 101.223466,9.37341036 C101.657331,8.90225498 102.938845,7.53540239 103.554143,8.64480478 C104.109203,9.64233466 103.124582,10.3623347 102.788964,10.7653625" id="Fill-7" fill="#FEFEFE"></path>
                    <path d="M72.542008,15.2992829 C71.7954741,14.9952191 70.8933227,14.972988 70.0234422,15.2598406 C69.2776255,15.5079681 67.0796175,16.9142629 65.7887809,17.5611155 C65.1333227,17.8902789 63.0450359,19.0993625 62.1271076,19.3051793 C61.0349163,19.5504382 59.2994582,19.6443825 59.0671076,18.6102789 C60.6971474,18.621753 62.903761,17.3201594 63.4172271,15.7324303 C63.7564303,14.6847012 63.684,13.8549801 63.1798566,13.2167331 C62.7438406,12.6645418 61.6961116,12.4730677 60.8441594,12.7455777 C59.5454343,13.1643825 58.633243,14.0988048 57.967745,15.2261355 C57.825753,15.4656574 57.5711713,15.9239044 57.3883028,16.3620717 C57.3624861,16.4251793 57.3352351,16.5026295 57.302247,16.5836653 C57.2721275,16.6510757 57.2814502,16.6589641 57.0326056,16.5987251 C56.762247,16.5320319 56.5341992,16.4352191 56.3541992,16.3513147 C55.9626454,16.1634263 55.6356335,15.796255 55.4843187,15.3760159 C55.3050359,14.8761753 55.3724462,14.1676494 54.8926853,14.1590438 C54.4143586,14.1518725 54.127506,15.0776892 54.2322072,15.7603984 C54.313243,16.2867729 54.673243,17.0189641 55.0798566,17.4098008 C55.6420876,17.9519522 56.1046375,18.2151394 56.8597769,18.5027092 C56.8977849,18.845498 57.0032032,19.2241434 57.0921275,19.4464542 C57.4944382,20.4590438 58.0509323,21.0083665 59.1696574,21.3231873 C60.2123665,21.6150598 61.633004,21.4974502 62.6018486,21.1804781 C63.2544382,20.9689243 65.189259,20.0151394 65.9329243,19.6415139 C66.6866295,19.2643028 68.4988207,18.1821514 69.209498,17.8501195 C69.6928446,17.6242231 70.5476653,17.0447809 71.1687012,17.1143426 C71.4476653,17.1480478 71.7560319,17.2756972 71.7610518,17.5682869 C71.767506,18.0516335 71.189498,18.3413546 70.8216096,18.5751394 C70.3662311,18.8655777 69.814757,18.9953785 69.7781833,19.5138645 C69.7401753,20.0502789 70.2163506,20.3665339 70.6107729,20.4188845 C70.9191394,20.4576096 71.3867092,20.3428685 71.7610518,20.1750598 C72.3168287,19.9226295 73.0569084,19.3216733 73.3609721,18.8189641 C74.1419283,17.5238247 73.6636016,15.7546614 72.542008,15.2992829 M61.5985817,14.4745817 C62.1844781,14.4408765 62.1113307,15.2813546 61.736988,15.7266932 C61.2909323,16.2588048 60.2102151,16.8260558 59.2686215,16.7686853 C59.3216892,16.0443825 60.5831235,14.5319522 61.5985817,14.4745817" id="Fill-9" fill="#FEFEFE"></path>
                    <path d="M96.5875697,33.587498 C96.1895618,33.5803267 95.6416733,33.642 95.5412749,33.6491713 C93.3963347,33.7904462 91.2284462,33.8435139 89.0906773,33.6921992 C89.0906773,33.6921992 85.6864542,33.5401673 81.4510757,32.8854263 C77.9629482,32.3454263 74.7896414,31.6576972 72.0071713,30.974988 C62.5611155,28.6600876 55.7447809,23.3518805 54.5830279,22.3765817 C52.2731474,20.4396096 49.9589641,18.3864622 48.4967331,15.7710837 C48.916255,14.905506 49.3099602,13.9868606 50.0270916,13.4432749 C51.2325896,12.5289323 52.6410359,11.9738725 53.9928287,11.3227171 C55.6415139,10.5274183 57.3468526,9.66829482 58.8470916,8.61267729 C59.0679681,8.45849402 59.2866932,8.30144223 59.498247,8.13506773 C59.896255,7.81952988 60.3659761,7.44160159 60.599761,6.97546614 C60.8600797,6.45841434 61.0350598,5.68104382 61.0881275,4.95960956 C61.1971315,3.44431076 60.8256574,2.54646215 60.2168127,1.48080478 C59.8625498,0.859768924 59.2508367,0.0042310757 58.5129084,0.092438247 C58.3314741,0.11323506 57.9614343,0.374270916 57.6788845,0.543513944 C55.7827888,1.6794502 54.3585657,3.35897211 53.0189641,4.88933068 C51.3674104,6.77466932 49.8262948,8.59044622 48.5318725,10.7303665 C47.912988,11.0107649 47.3894821,11.2287729 46.6185657,11.1477371 C46.0219124,11.0846295 45.6246215,10.7067012 45.1936255,10.6615219 C44.5439044,10.5933944 44.2498805,11.0846295 44.323745,11.7035139 C44.4463745,12.7139522 45.2466932,14.0076574 45.6117131,14.6588127 C44.6851793,16.5835936 43.0888446,18.8095697 42.0633466,20.8469402 C41.699761,21.571243 41.2716335,22.4102869 41.1941833,23.2464622 C41.0242231,25.0658247 43.1863745,25.8783347 43.9415139,24.4634343 C43.9924303,24.1106056 43.8533068,23.7886135 43.8368127,23.4551474 C43.7772908,22.2439124 44.6966534,21.2184143 45.2287649,20.2925976 C45.8720319,19.1695697 46.412749,18.0938725 47.2783267,17.5094104 C49.0130677,19.9720398 51.0231873,22.3988127 53.1595219,24.5337131 C54.0200797,25.394988 57.8818327,28.3631952 58.8951394,29.087498 C59.8790438,29.7888526 60.9353785,30.3561036 62.1315538,30.9993705 C63.2990438,31.6268606 64.9670916,32.2299681 66.2213546,32.6516414 C67.9216733,33.2246295 71.0024701,33.90949 72.9659761,34.2544303 C75.480239,34.6940319 78.4283665,34.9572191 80.9756175,35.0102869 C83.3263745,35.0626375 85.439761,35.038255 88.5786454,34.8819203 C89.6952191,34.8259841 94.7610359,34.3914024 96.1429482,34.0844701 C96.2440637,34.0636733 97.0415139,33.8678964 97.0171315,33.6900478 C97.0063745,33.6154661 96.8242231,33.5889323 96.5875697,33.587498 M55.7648606,6.07188048 C56.0789641,5.72694024 56.4475697,5.32534661 56.8104382,4.994749 C57.2923506,4.55227888 57.8639044,3.83514741 58.6520319,4.02088446 C58.3479681,5.1769004 57.5060558,5.9470996 56.7035857,6.62909163 C55.8917928,7.31825498 54.8913944,7.84391235 53.9225498,8.36598406 C54.3571315,7.65315538 55.0484462,6.86000797 55.7648606,6.07188048" id="Fill-11" fill="#FEFEFE"></path>
                    <path d="M125.69443,14.5695299 C122.643753,12.1298486 119.818972,16.1716016 118.566143,18.1343904 C117.803116,19.3276972 117.056582,18.7898486 117.205028,16.9690518 C117.361363,15.0679363 117.982398,13.1130359 118.866622,11.531761 C119.822558,9.82713944 120.564789,9.56395219 121.161442,8.67972908 C121.433235,8.27813546 121.341442,7.8256255 121.187259,7.59686056 C120.779211,6.99733865 120.181841,6.91486853 119.575865,7.14865339 C118.168853,7.69367331 116.543833,10.0759841 115.79443,12.6519203 C114.71443,16.3709641 114.246861,21.2130359 117.391482,21.7953466 C120.177538,22.3138327 121.656263,14.6735139 124.400008,16.4814024 C125.712359,17.3527171 125.938255,19.1297689 127.397618,20.2915219 C130.887896,23.0704064 135.985984,14.4404462 134.012438,12.7723984 C133.699052,12.5092112 133.046462,12.2904861 132.677857,12.6590916 C132.4369,12.9000478 132.526542,13.3310438 132.461283,13.7892908 C132.220327,15.4788526 131.889729,16.6341514 130.048853,18.1860239 C128.291163,19.6719203 127.096422,15.6911235 125.69443,14.5695299" id="Fill-13" fill="#FEFEFE"></path>
                    <path d="M79.9073068,17.7700159 C80.1511315,17.6380637 80.5591793,17.3892191 81.0561514,17.1590199 C81.5516892,16.9281036 82.1332829,16.7445179 82.706988,16.6706534 C83.7367888,16.5372669 84.4861912,16.6606135 85.0627649,17.0220478 C85.6221275,17.3748765 86.1786215,17.8567888 86.5579841,17.9492988 C86.9172669,18.0360717 87.0951155,17.7771873 87.7627649,17.3483426 C88.5551952,16.8470677 89.2945578,16.4547968 89.7398964,16.2296175 C91.7873068,15.1940797 93.1828446,14.8426853 94.0355139,14.803243 C94.9039602,14.7602151 95.1614104,15.2277849 95.2546375,15.4952749 C95.4475458,16.0524861 95.1040398,16.9424462 94.4148765,16.8886614 C93.5650757,16.8219681 92.3222869,17.2759124 91.924996,17.4071474 C91.1182231,17.6717689 90.4570279,17.9672271 89.633761,18.4756733 C88.8406135,18.964757 88.030255,19.7306534 87.7398167,19.9508127 C87.1539203,20.3947171 86.339259,20.8622869 85.6400558,20.5682629 C85.4191793,20.4743187 85.095753,19.9716096 84.9609323,19.684757 C84.4338406,18.5739203 83.2914502,18.3623665 81.9848367,19.1031633 C80.6316096,19.9128048 79.324996,20.7783825 78.7692191,21.0164701 C78.2091394,21.2588606 76.1868287,21.6188606 75.3535219,20.421251 C73.6338406,17.9492988 76.3998167,13.9183028 79.854239,14.1943984 C80.8288207,14.2725657 81.1472271,14.4604542 81.4326454,14.8591793 C81.7496175,15.3059522 81.6456335,16.2626056 81.1472271,16.2296175 C79.2073865,16.0962311 77.2381434,16.4856335 76.9641992,18.2053147 C76.9598964,18.2282629 76.9254741,18.8385418 77.1743187,18.9762311 C77.5543984,19.1928048 78.0183825,18.9762311 78.2758327,18.8528845 C78.7340797,18.626988 79.4218088,18.0360717 79.9073068,17.7700159" id="Fill-15" fill="#FEFEFE"></path>
                    <path d="M162.574924,8.39825498 C163.109904,9.41371315 160.405602,11.6310837 159.062414,14.3891713 C158.519546,15.5007251 158.059147,16.5068606 157.847594,17.6721992 C157.560741,19.2477371 157.925761,19.296502 158.576199,18.6102072 C159.902892,17.2196892 162.166876,14.47451 166.212215,14.0836733 C167.359625,14.0277371 167.964884,14.1883745 168.304088,14.3396892 C169.142414,14.7111633 168.586637,16.0263825 167.73612,16.0134741 C167.419865,16.0091713 166.920024,15.6828765 165.893092,15.8707649 C163.891578,16.2393705 163.355163,17.5445498 163.62839,18.5643108 C164.012056,19.9985737 166.154845,18.2279761 167.490861,17.3961036 C168.630382,16.6847092 169.287992,15.8119602 169.936279,14.9686135 C170.107673,14.4070996 170.193012,13.9029562 170.410303,13.2388924 C171.098032,11.1348287 171.625841,9.84255777 172.994845,8.18813546 C174.310064,6.59968924 175.826797,7.62518725 174.930382,9.63100398 C173.962255,11.7895697 173.400741,12.6716414 171.784327,15.211004 C171.59357,15.5150677 171.379147,15.9001673 171.202016,16.2264622 C170.88361,17.6133944 171.334685,19.2936335 171.927036,19.0139522 C174.306478,17.8959442 173.306797,21.211243 171.59357,20.8935538 C170.248948,20.6425578 169.795004,18.6661434 169.713968,17.6047888 C169.478749,17.8543506 169.358271,17.9748287 169.114446,18.1914024 C167.029028,20.0616813 164.052932,22.1635936 162.332534,20.5658247 C161.744486,20.0179363 161.437554,18.9508446 161.674207,17.943992 C160.544008,18.97451 160.313092,19.4392112 159.628948,20.169251 C158.833649,21.0169004 158.010382,21.6565817 156.889506,21.3431952 C155.367036,20.9172191 155.469586,19.0010438 155.79588,17.4405657 C156.117873,16.0600876 156.667912,14.6523586 157.423769,13.2238327 C158.287195,11.7164223 159.321299,10.2427171 160.585602,8.52590438 C161.048151,7.89411155 162.164008,7.62375299 162.574924,8.39825498" id="Fill-17" fill="#FEFEFE"></path>
                    <polygon id="Fill-19" fill="#FEFEFE" points="128.219092 27.0254582 132.763554 27.0254582 132.763554 28.0466534 129.367219 28.0466534 129.367219 30.4906375 132.650247 30.4906375 132.650247 31.519004 129.367219 31.519004 129.367219 34.0088845 132.872558 34.0088845 132.872558 35.0300797 128.219092 35.0300797"></polygon>
                    <polygon id="Fill-21" fill="#FEFEFE" points="141.404845 27.0254582 142.495602 27.0254582 142.495602 35.0415538 141.509546 35.0415538 136.148988 28.8656175 136.148988 35.0415538 135.070422 35.0415538 135.070422 27.0254582 135.999108 27.0254582 141.404845 33.2515936"></polygon>
                    <polygon id="Fill-23" fill="#FEFEFE" points="144.469434 27.0129084 151.166008 27.0129084 151.166008 28.0355378 148.370629 28.0355378 148.370629 35.0411952 147.218199 35.0411952 147.218199 28.0355378 144.469434 28.0355378"></polygon>
                    <mask id="mask-3" fill="white">
                        <use xlink:href="#path-2"></use>
                    </mask>
                    <g id="Clip-26"></g>
                    <polygon id="Fill-25" fill="#FEFEFE" mask="url(#mask-3)" points="153.202948 35.0419124 154.350359 35.0419124 154.350359 27.0258167 153.202948 27.0258167"></polygon>
                    <polygon id="Fill-27" fill="#FEFEFE" mask="url(#mask-3)" points="163.439068 27.0254582 164.529825 27.0254582 164.529825 35.0415538 163.543769 35.0415538 158.182494 28.8656175 158.182494 35.0415538 157.103928 35.0415538 157.103928 27.0254582 158.032614 27.0254582 163.439068 33.2515936"></polygon>
                    <path d="M123.120072,31.0999841 L125.811466,31.0999841 L125.811466,34.497753 C124.823976,34.9251633 123.845809,35.1395857 122.874096,35.1395857 C121.545968,35.1395857 120.485331,34.7516175 119.6929,33.9771155 C118.896884,33.2026135 118.501028,32.2473944 118.501028,31.1114582 C118.501028,29.9138486 118.911944,28.9163187 119.73306,28.1210199 C120.557044,27.325004 121.588279,26.9277131 122.827482,26.9277131 C123.278558,26.9277131 123.706685,26.9764781 124.112582,27.0732908 C124.518478,27.1708207 125.03051,27.3501036 125.650829,27.6097052 L125.650829,28.7807809 C124.692741,28.2257211 123.74541,27.9481912 122.805251,27.9481912 C121.928916,27.9481912 121.190271,28.2465179 120.589315,28.8438884 C119.988359,29.441259 119.688598,30.1727331 119.688598,31.0411793 C119.688598,31.9512191 119.988359,32.6970359 120.589315,33.2750438 C121.190271,33.8509004 121.963339,34.1406215 122.907801,34.1406215 C123.366765,34.1406215 123.916805,34.0359203 124.554335,33.8258008 L124.663339,33.7920956 L124.663339,32.1211793 L123.120072,32.1211793 L123.120072,31.0999841 Z" id="Fill-28" fill="#FEFEFE" mask="url(#mask-3)"></path>
                    <path d="M12.5739681,7.83100398 C10.5473546,7.36773705 12.251259,6.09554582 12.251259,6.09554582 C12.251259,6.09554582 14.0376335,4.68351394 15.3980319,4.7143506 C16.2306215,4.73299602 18.1769163,5.84096414 19.1794661,6.5007251 C19.7438486,6.87148207 20.7069562,7.88263745 19.5509402,8.35594422 C19.0783506,8.54956972 18.4946056,8.63777689 17.7925339,8.63777689 C16.4773147,8.63777689 14.7490279,8.32941036 12.5739681,7.83100398 M0.32536255,14.2808845 C-1.19854183,22.1514024 2.75858964,29.8369004 9.55843028,33.2698088 C10.4154024,33.6993705 10.8801036,33.8420797 10.9718964,33.6097291 C10.9955618,33.5480558 10.9575538,33.4569801 10.8585896,33.3673386 C10.1170757,32.703992 5.86520319,30.0133147 4.05946614,25.3548287 C3.64066135,24.2748287 2.50185657,21.2951474 3.08703586,18.0780956 C3.38034263,16.4588127 4.83253386,15.3494104 6.1434502,15.2755458 C10.2138884,15.0360239 12.7446454,19.656502 13.6934104,26.3322789 C14.6443267,33.01451 16.1761195,34.7951474 18.9126932,35.0203267 C22.71851,35.332996 26.9108606,30.7275777 27.3325339,20.5421594 C27.3798645,19.4098088 27.567753,18.9350677 27.9542869,18.9393705 C28.4390677,18.9479761 29.4502231,22.4016813 29.6015378,26.6406454 C29.6797052,28.836502 30.2304622,30.1000876 31.636757,28.0677371 C33.038749,26.0368207 34.1330916,23.4522789 34.6121355,20.9745896 C35.989745,13.8649482 33.0559602,7.04502789 27.4343665,3.22558566 C26.9445657,2.9121992 26.6168367,3.00184064 26.5773944,3.14885259 C26.5522948,3.24638247 26.5924542,3.40056574 26.8183506,3.59849402 C28.7452829,5.29020717 32.6213785,9.26956972 33.3664781,14.83451 C34.173251,20.8333147 31.8734104,25.7198486 31.4703825,22.803992 C31.2939681,21.5095697 31.1491076,20.1929163 30.7769163,18.7995299 C30.5072749,17.7991315 30.2849641,16.9536335 29.7456813,15.7208845 C29.5879124,15.3608845 29.367753,14.9686135 29.1927729,14.7054263 C28.0439283,12.9685339 26.4698247,13.1592908 25.6336494,14.7570598 C24.1599442,17.5796892 24.6432908,32.8868606 19.3458406,32.0972988 C17.269745,31.7889323 17.7559602,29.3772191 17.3837689,23.2995299 C16.6874343,11.9365817 9.81731474,11.3356255 10.6075936,10.8687729 C11.5628127,10.307259 13.8361195,11.4360239 17.7394661,11.5873386 C20.133251,11.6827171 23.5876733,11.2710837 24.3019363,10.1172191 C24.982494,9.01140239 24.1233705,6.95968924 21.6435299,5.10662151 C19.5430518,3.53682072 17.0108606,2.74654183 19.0087888,2.21156175 C19.8234502,1.98996813 21.464247,1.91753785 22.8612191,2.07745817 C23.6486295,2.169251 24.5335697,2.33921116 25.0004223,2.38941036 C25.4651235,2.44104382 25.5913386,2.14558566 24.9516574,1.77769721 C23.5453625,1.06271713 22.4230518,0.728533865 20.8016175,0.411561753 C19.6735697,0.193553785 18.5534104,0.0852669323 17.4454422,0.0852669323 C9.25436653,0.0852669323 1.94751394,5.90263745 0.32536255,14.2808845" id="Fill-29" fill="#FEFEFE" mask="url(#mask-3)"></path>
                </g>
            </g>
        </g>
    </g>
</svg>